<svg width="48" height="48" viewBox="0 0 48 48" fill="none" xmlns="http://www.w3.org/2000/svg">
<circle cx="24" cy="24" r="24" fill="#F6B703"/>
<g clip-path="url(#clip0_733_3537)">
<path d="M30.0017 36.8588H18.0017C16.183 36.8588 14.4389 36.1364 13.1529 34.8504C11.867 33.5644 11.1445 31.8203 11.1445 30.0017V18.0017C11.1445 16.183 11.867 14.4389 13.1529 13.1529C14.4389 11.867 16.183 11.1445 18.0017 11.1445H30.0017C31.8203 11.1445 33.5644 11.867 34.8504 13.1529C36.1364 14.4389 36.8588 16.183 36.8588 18.0017V30.0017C36.8588 31.8203 36.1364 33.5644 34.8504 34.8504C33.5644 36.1364 31.8203 36.8588 30.0017 36.8588Z" stroke="#4607A7" stroke-width="2.4" stroke-miterlimit="10"/>
<path d="M24.0039 30C27.3176 30 30.0039 27.3137 30.0039 24C30.0039 20.6863 27.3176 18 24.0039 18C20.6902 18 18.0039 20.6863 18.0039 24C18.0039 27.3137 20.6902 30 24.0039 30Z" stroke="#4607A7" stroke-width="2.4" stroke-miterlimit="10"/>
<path d="M31.7165 17.144C32.1899 17.144 32.5737 16.7602 32.5737 16.2868C32.5737 15.8134 32.1899 15.4297 31.7165 15.4297C31.2431 15.4297 30.8594 15.8134 30.8594 16.2868C30.8594 16.7602 31.2431 17.144 31.7165 17.144Z" stroke="#4607A7" stroke-width="2" stroke-miterlimit="10"/>
</g>
<defs>
<clipPath id="clip0_733_3537">
<rect width="27.4286" height="27.4286" fill="white" transform="translate(10.2852 10.2852)"/>
</clipPath>
</defs>
</svg>
