<svg width="48" height="48" viewBox="0 0 48 48" fill="none" xmlns="http://www.w3.org/2000/svg">
<circle cx="24" cy="24" r="24" fill="#F6B703"/>
<path d="M13.4525 20.3108H18.1299V34.5614H13.4525V20.3108ZM15.8225 13.4414C14.2217 13.4414 13.1758 14.5054 13.1758 15.902C13.1758 17.2699 14.191 18.3649 15.7613 18.3649H15.7911C17.4226 18.3649 18.4386 17.2698 18.4386 15.902C18.408 14.5054 17.4226 13.4414 15.8225 13.4414ZM29.614 19.9761C27.1312 19.9761 26.0189 21.3586 25.3984 22.3282V20.3108H20.7197C20.7816 21.6477 20.7197 34.5614 20.7197 34.5614H25.3984V26.6029C25.3984 26.1766 25.429 25.752 25.5521 25.4466C25.8909 24.5957 26.6606 23.7145 27.9519 23.7145C29.646 23.7145 30.3226 25.0219 30.3226 26.9368V34.5614H35.0006V26.3898C35.0006 22.0127 32.6933 19.9761 29.614 19.9761Z" fill="#4607A7"/>
</svg>
