<svg width="43" height="42" viewBox="0 0 43 42" fill="none" xmlns="http://www.w3.org/2000/svg">
<path d="M4.16675 12.25L18.4554 22.252C19.6124 23.062 20.1909 23.4669 20.8202 23.6238C21.3761 23.7623 21.9574 23.7623 22.5133 23.6238C23.1426 23.4669 23.7211 23.062 24.8781 22.252L39.1667 12.25M12.5667 35H30.7667C33.707 35 35.1772 35 36.3002 34.4278C37.288 33.9244 38.0912 33.1213 38.5945 32.1335C39.1667 31.0104 39.1667 29.5403 39.1667 26.6V15.4C39.1667 12.4597 39.1667 10.9896 38.5945 9.86655C38.0912 8.8787 37.288 8.07555 36.3002 7.57222C35.1772 7 33.707 7 30.7667 7H12.5667C9.62647 7 8.15633 7 7.0333 7.57222C6.04545 8.07555 5.2423 8.8787 4.73896 9.86655C4.16675 10.9896 4.16675 12.4597 4.16675 15.4V26.6C4.16675 29.5403 4.16675 31.0104 4.73896 32.1335C5.2423 33.1213 6.04545 33.9244 7.0333 34.4278C8.15633 35 9.62647 35 12.5667 35Z" stroke="#4607A7" stroke-width="2.5" stroke-linecap="round" stroke-linejoin="round"/>
</svg>
