<svg width="42" height="42" viewBox="0 0 42 42" fill="none" xmlns="http://www.w3.org/2000/svg">
<path d="M14.6655 15.4932C15.8835 18.03 17.5439 20.4076 19.6466 22.5104C21.7494 24.6132 24.127 26.2735 26.6638 27.4915C26.882 27.5963 26.9912 27.6487 27.1292 27.6889C27.6198 27.832 28.2223 27.7292 28.6378 27.4317C28.7547 27.348 28.8547 27.248 29.0548 27.0479C29.6666 26.4361 29.9725 26.1302 30.2801 25.9302C31.4402 25.176 32.9357 25.176 34.0957 25.9302C34.4033 26.1302 34.7093 26.4361 35.3211 27.0479L35.6621 27.3889C36.5921 28.319 37.0571 28.784 37.3097 29.2834C37.8121 30.2766 37.8121 31.4496 37.3097 32.4428C37.0571 32.9422 36.5921 33.4072 35.6621 34.3373L35.3862 34.6131C34.4594 35.54 33.996 36.0034 33.3659 36.3573C32.6668 36.7501 31.5809 37.0324 30.779 37.0301C30.0564 37.0279 29.5625 36.8877 28.5747 36.6074C23.2663 35.1007 18.2571 32.2578 14.0782 28.0789C9.89919 23.8999 7.05636 18.8908 5.54966 13.5823C5.2693 12.5945 5.12912 12.1007 5.12697 11.378C5.12458 10.5761 5.40697 9.49025 5.7997 8.79112C6.15363 8.16106 6.61705 7.69764 7.5439 6.7708L7.81976 6.49494C8.74978 5.56491 9.21479 5.0999 9.71421 4.8473C10.7074 4.34493 11.8804 4.34493 12.8736 4.8473C13.3731 5.0999 13.8381 5.56491 14.7681 6.49494L15.1091 6.83596C15.7209 7.44777 16.0268 7.75368 16.2268 8.06129C16.9811 9.22135 16.9811 10.7169 16.2268 11.8769C16.0268 12.1845 15.7209 12.4904 15.1091 13.1022C14.9091 13.3023 14.809 13.4023 14.7253 13.5192C14.4278 13.9347 14.3251 14.5372 14.4681 15.0278C14.5083 15.1659 14.5607 15.275 14.6655 15.4932Z" stroke="#4607A7" stroke-width="2.44186" stroke-linecap="round" stroke-linejoin="round"/>
</svg>
