<svg width="48" height="48" viewBox="0 0 48 48" fill="none" xmlns="http://www.w3.org/2000/svg">
<circle cx="24" cy="24" r="24" fill="#F6B703"/>
<path fill-rule="evenodd" clip-rule="evenodd" d="M35.225 17.221C34.5699 16.0419 33.8588 15.825 32.4111 15.7426C30.9649 15.6433 27.3282 15.6021 24.1776 15.6021C21.021 15.6021 17.3828 15.6433 15.9381 15.741C14.4934 15.825 13.7809 16.0404 13.1197 17.221C12.4449 18.3985 12.0977 20.4267 12.0977 23.9975V24.0097C12.0977 27.5652 12.4449 29.6087 13.1197 30.774C13.7809 31.953 14.4919 32.1669 15.9366 32.2661C17.3828 32.3517 21.021 32.4021 24.1776 32.4021C27.3282 32.4021 30.9649 32.3517 32.4126 32.2677C33.8603 32.1684 34.5714 31.9546 35.2265 30.7755C35.9074 29.6102 36.2516 27.5667 36.2516 24.0112V23.999C36.2516 20.4267 35.9074 18.3985 35.225 17.221Z" fill="#4607A7"/>
<path fill-rule="evenodd" clip-rule="evenodd" d="M21.1562 28.5836V19.4199L28.7043 24.0017L21.1562 28.5836Z" fill="#F6B703"/>
</svg>
